<svg width="10" height="16" viewBox="0 0 10 16" fill="none" xmlns="http://www.w3.org/2000/svg">
<path d="M5.83325 6.49984H9.58325L9.16659 8.1665H5.83325V15.6665H4.16659V8.1665H0.833252V6.49984H4.16659V4.93984C4.16659 3.454 4.32159 2.91484 4.61159 2.3715C4.89576 1.83468 5.33476 1.39568 5.87159 1.1115C6.41492 0.821504 6.95409 0.666504 8.43992 0.666504C8.87492 0.666504 9.25659 0.708171 9.58325 0.791504V2.33317H8.43992C7.33659 2.33317 7.00075 2.39817 6.65825 2.5815C6.40492 2.7165 6.21659 2.90484 6.08159 3.15817C5.89825 3.50067 5.83325 3.8365 5.83325 4.93984V6.49984Z" fill="black"/>
</svg>
