<svg width="18" height="18" viewBox="0 0 18 18" fill="none" xmlns="http://www.w3.org/2000/svg">
<path d="M9.00008 6.49984C8.33704 6.49984 7.70116 6.76323 7.23231 7.23207C6.76347 7.70091 6.50008 8.3368 6.50008 8.99984C6.50008 9.66288 6.76347 10.2988 7.23231 10.7676C7.70116 11.2364 8.33704 11.4998 9.00008 11.4998C9.66312 11.4998 10.299 11.2364 10.7678 10.7676C11.2367 10.2988 11.5001 9.66288 11.5001 8.99984C11.5001 8.3368 11.2367 7.70091 10.7678 7.23207C10.299 6.76323 9.66312 6.49984 9.00008 6.49984ZM9.00008 4.83317C10.1052 4.83317 11.165 5.27216 11.9464 6.05356C12.7278 6.83496 13.1667 7.89477 13.1667 8.99984C13.1667 10.1049 12.7278 11.1647 11.9464 11.9461C11.165 12.7275 10.1052 13.1665 9.00008 13.1665C7.89501 13.1665 6.83521 12.7275 6.0538 11.9461C5.2724 11.1647 4.83342 10.1049 4.83342 8.99984C4.83342 7.89477 5.2724 6.83496 6.0538 6.05356C6.83521 5.27216 7.89501 4.83317 9.00008 4.83317ZM14.4167 4.62484C14.4167 4.9011 14.307 5.16606 14.1117 5.36141C13.9163 5.55676 13.6513 5.6665 13.3751 5.6665C13.0988 5.6665 12.8339 5.55676 12.6385 5.36141C12.4432 5.16606 12.3334 4.9011 12.3334 4.62484C12.3334 4.34857 12.4432 4.08362 12.6385 3.88827C12.8339 3.69292 13.0988 3.58317 13.3751 3.58317C13.6513 3.58317 13.9163 3.69292 14.1117 3.88827C14.307 4.08362 14.4167 4.34857 14.4167 4.62484ZM9.00008 2.33317C6.93842 2.33317 6.60175 2.339 5.64258 2.3815C4.98925 2.41234 4.55091 2.49984 4.14425 2.65817C3.78258 2.79817 3.52175 2.96567 3.24425 3.244C2.98342 3.496 2.78288 3.80366 2.65758 4.144C2.49925 4.55234 2.41175 4.98984 2.38175 5.64234C2.33841 6.56234 2.33341 6.884 2.33341 8.99984C2.33341 11.0615 2.33925 11.3982 2.38175 12.3573C2.41258 13.0098 2.50008 13.449 2.65758 13.8548C2.79925 14.2173 2.96591 14.4782 3.24258 14.7548C3.52341 15.0348 3.78425 15.2023 4.14258 15.3407C4.55425 15.4998 4.99258 15.5882 5.64258 15.6182C6.56258 15.6615 6.88425 15.6665 9.00008 15.6665C11.0617 15.6665 11.3984 15.6607 12.3576 15.6182C13.0092 15.5873 13.4484 15.4998 13.8551 15.3423C14.2159 15.2015 14.4784 15.034 14.7551 14.7573C15.0359 14.4765 15.2034 14.2157 15.3417 13.8573C15.5001 13.4465 15.5884 13.0073 15.6184 12.3573C15.6617 11.4373 15.6667 11.1157 15.6667 8.99984C15.6667 6.93817 15.6609 6.6015 15.6184 5.64234C15.5876 4.99067 15.5001 4.55067 15.3417 4.144C15.2162 3.80401 15.016 3.49647 14.7559 3.244C14.504 2.98304 14.1963 2.78248 13.8559 2.65734C13.4476 2.499 13.0092 2.4115 12.3576 2.3815C11.4376 2.33817 11.1159 2.33317 9.00008 2.33317ZM9.00008 0.666504C11.2642 0.666504 11.5467 0.674837 12.4351 0.716504C13.3226 0.758171 13.9267 0.897337 14.4584 1.104C15.0084 1.31567 15.4717 1.60234 15.9351 2.06484C16.3588 2.48142 16.6867 2.98533 16.8959 3.5415C17.1017 4.07234 17.2417 4.67734 17.2834 5.56484C17.3226 6.45317 17.3334 6.73567 17.3334 8.99984C17.3334 11.264 17.3251 11.5465 17.2834 12.4348C17.2417 13.3223 17.1017 13.9265 16.8959 14.4582C16.6873 15.0147 16.3594 15.5187 15.9351 15.9348C15.5184 16.3584 15.0145 16.6863 14.4584 16.8957C13.9276 17.1015 13.3226 17.2415 12.4351 17.2832C11.5467 17.3223 11.2642 17.3332 9.00008 17.3332C6.73592 17.3332 6.45341 17.3248 5.56508 17.2832C4.67758 17.2415 4.07341 17.1015 3.54175 16.8957C2.98535 16.6869 2.48135 16.359 2.06508 15.9348C1.64125 15.5183 1.31336 15.0144 1.10425 14.4582C0.897581 13.9273 0.758415 13.3223 0.716748 12.4348C0.677581 11.5465 0.666748 11.264 0.666748 8.99984C0.666748 6.73567 0.675081 6.45317 0.716748 5.56484C0.758415 4.6765 0.897581 4.07317 1.10425 3.5415C1.31278 2.98499 1.64075 2.48094 2.06508 2.06484C2.48147 1.64086 2.98544 1.31295 3.54175 1.104C4.07341 0.897337 4.67675 0.758171 5.56508 0.716504C6.45341 0.677337 6.73592 0.666504 9.00008 0.666504Z" fill="black"/>
</svg>
