<svg width="18" height="18" viewBox="0 0 18 18" fill="none" xmlns="http://www.w3.org/2000/svg">
<path d="M9 6.55C9.917 5.613 11.111 5 12.5 5C13.9587 5 15.3576 5.57946 16.3891 6.61091C17.4205 7.64236 18 9.04131 18 10.5V18H16V10.5C16 9.57174 15.6313 8.6815 14.9749 8.02513C14.3185 7.36875 13.4283 7 12.5 7C11.5717 7 10.6815 7.36875 10.0251 8.02513C9.36875 8.6815 9 9.57174 9 10.5V18H7V5.5H9V6.55ZM2 3.5C1.60218 3.5 1.22064 3.34196 0.93934 3.06066C0.658035 2.77936 0.5 2.39782 0.5 2C0.5 1.60218 0.658035 1.22064 0.93934 0.93934C1.22064 0.658035 1.60218 0.5 2 0.5C2.39782 0.5 2.77936 0.658035 3.06066 0.93934C3.34196 1.22064 3.5 1.60218 3.5 2C3.5 2.39782 3.34196 2.77936 3.06066 3.06066C2.77936 3.34196 2.39782 3.5 2 3.5ZM1 5.5H3V18H1V5.5Z" fill="#1267A0"/>
</svg>
