<svg width="17" height="15" viewBox="0 0 17 15" fill="none" xmlns="http://www.w3.org/2000/svg">
<path d="M11.7501 2.62477C11.1167 2.62466 10.5086 2.8732 10.0567 3.31691C9.60472 3.76061 9.34501 4.36402 9.33343 4.99727L9.3101 6.30977C9.30873 6.38024 9.29248 6.44962 9.26241 6.51337C9.23235 6.57712 9.18914 6.63379 9.13563 6.67967C9.08212 6.72554 9.01952 6.75959 8.95193 6.77957C8.88434 6.79955 8.81328 6.80501 8.74343 6.7956L7.4426 6.61894C5.73093 6.3856 4.09093 5.59727 2.5176 4.28644C2.01926 7.04477 2.9926 8.9556 5.33676 10.4298L6.7926 11.3448C6.86177 11.3882 6.91924 11.448 6.95997 11.5188C7.0007 11.5896 7.02346 11.6694 7.02626 11.751C7.02906 11.8327 7.0118 11.9137 6.97601 11.9872C6.94021 12.0606 6.88697 12.1242 6.82093 12.1723L5.49426 13.1414C6.28343 13.1906 7.0326 13.1556 7.65426 13.0323C11.5859 12.2473 14.2001 9.28894 14.2001 4.40894C14.2001 4.0106 13.3568 2.62477 11.7501 2.62477ZM7.66676 4.96644C7.68131 4.16314 7.9325 3.38199 8.3889 2.72079C8.84529 2.05958 9.4866 1.5477 10.2325 1.24924C10.9785 0.950782 11.7959 0.879003 12.5824 1.04289C13.3689 1.20678 14.0896 1.59906 14.6543 2.1706C15.2468 2.16644 15.7509 2.31644 16.8784 1.6331C16.5993 2.99977 16.4618 3.5931 15.8668 4.40894C15.8668 10.7773 11.9526 13.8739 7.98093 14.6664C5.2576 15.2098 1.2976 14.3173 0.162598 13.1323C0.740931 13.0873 3.09093 12.8348 4.44926 11.8406C3.3001 11.0831 -1.27407 8.39144 1.73176 1.15477C3.1426 2.80227 4.57343 3.92394 6.02343 4.51894C6.98843 4.91477 7.2251 4.90644 7.6676 4.96727L7.66676 4.96644Z" fill="black"/>
</svg>
